<?xml version="1.0" encoding="UTF-8"?>
<svg id="Layer_2" xmlns="http://www.w3.org/2000/svg" viewBox="0 0 190 190">
    <defs>
        <style>.cls-1{fill:#fff;}</style>
    </defs>
    <g id="Icons">
        <path id="Dislike" class="cls-1" d="m2.32,13.53C-.77,10.44-.77,5.42,2.32,2.32,5.42-.77,10.44-.77,13.53,2.32l81.47,81.49L176.47,2.32c3.1-3.1,8.11-3.1,11.21,0,3.1,3.1,3.1,8.11,0,11.21h0l-81.49,81.47,81.49,81.47c3.1,3.1,3.1,8.11,0,11.21-3.1,3.1-8.11,3.1-11.21,0l-81.47-81.49L13.53,187.68c-3.1,3.1-8.11,3.1-11.21,0-3.1-3.1-3.1-8.11,0-11.21l81.49-81.47L2.32,13.53Z"/>
    </g>
</svg>