<?xml version="1.0" encoding="utf-8"?>
<!-- Generator: Adobe Illustrator 27.2.0, SVG Export Plug-In . SVG Version: 6.00 Build 0)  -->
<svg version="1.1" id="Icons" xmlns="http://www.w3.org/2000/svg" xmlns:xlink="http://www.w3.org/1999/xlink" x="0px" y="0px"
	 viewBox="0 0 250 247.89" style="enable-background:new 0 0 250 247.89;" xml:space="preserve">
<style type="text/css">
	.st0{fill:#FFFFFF;stroke:#000000;stroke-width:3;stroke-linecap:round;stroke-linejoin:round;stroke-miterlimit:10;}
</style>
<g id="Quille_x28_like_x29__00000141424736549416230070000017787994965305343910_">
	<path id="Path_148_00000142137400838486097540000005115164045572602792_" class="st0" d="M100.75,180.16
		c8.79-2.79,17.06-5.85,24.75-9.12c8.32-12.5,15.78-30.54,20.65-55.09c2.91-15.19,6.69-30.2,11.34-44.95
		c-3.92,1.81-7.89,3.75-11.91,5.82c4.48-3.73,8.97-7.18,13.42-10.32c1.12-3.28,2.23-6.29,3.31-9.06c-4.73,2.97-9.6,6.13-14.61,9.48
		c5.4-4.46,10.69-8.64,15.81-12.49c7.99-19.55,14.25-25.48,14.25-25.48s-45.15,1.98-79.21,53.81c1.56,10.94,2.15,22.01,1.77,33.05
		c-1.75-9.14-3.82-17.77-6.22-25.89c-4.24,7.29-7.98,14.86-11.2,22.66c-3.34,7.98-5.98,16.23-7.88,24.67
		c3.96,9.39,7.16,19.08,9.58,28.99c-3.61-7.22-7.34-14.01-11.2-20.36l-0.05,0.32c3.08,7.96,5.65,16.1,7.69,24.38
		c-2.79-5.59-5.65-10.91-8.58-15.96c-1.25,18.96,3.39,33.54,13.68,37.82c9.34,3.88,22.53-0.21,34.66-15.02
		c-6.34,1.18-13.07,2.1-20.07,2.73"/>
	<path id="Path_149_00000160906220182452857000000005660379373347794847_" class="st0" d="M80.61,201.79
		c11.36-32.28,39.7-95.16,54.36-126.34c2.74-5.83,11.78-22.99,11.78-22.99L77.36,218.35c-0.12,0.43-0.57,0.69-1,0.57
		c-0.43-0.12-0.69-0.57-0.57-1c1.69-6.04,3.63-12.74,4.82-16.11"/>
</g>
</svg>
