<?xml version="1.0" encoding="utf-8"?>
<!-- Generator: Adobe Illustrator 27.2.0, SVG Export Plug-In . SVG Version: 6.00 Build 0)  -->
<svg version="1.1" id="Icons" xmlns="http://www.w3.org/2000/svg" xmlns:xlink="http://www.w3.org/1999/xlink" x="0px" y="0px"
	 viewBox="0 0 250 247.89" style="enable-background:new 0 0 250 247.89;" xml:space="preserve">
<style type="text/css">
	.st0{fill:#FFFFFF;stroke:#000000;stroke-width:3;stroke-linecap:round;stroke-linejoin:round;stroke-miterlimit:10;}
</style>
<path id="Gift" class="st0" d="M65.62,58.63c0-16.4,13.29-29.69,29.69-29.69S125,42.23,125,58.63c0-16.4,13.29-29.69,29.69-29.69
	s29.69,13.29,29.69,29.69v0.07c0,0.83,0,3.21-0.45,5.87h24.2c6.56,0,11.88,5.32,11.88,11.88v11.88c0,6.56-5.32,11.88-11.88,11.88
	H41.88c-6.56,0-11.88-5.32-11.88-11.88V76.44c0-6.56,5.32-11.88,11.88-11.88h24.2c-0.31-1.94-0.46-3.9-0.45-5.87V58.63z
	 M78.31,64.57h34.82v-5.94c0-9.84-7.97-17.81-17.81-17.81S77.5,48.79,77.5,58.63c0,1.01,0.02,3.25,0.53,5.11
	C78.11,64.02,78.2,64.3,78.31,64.57z M136.88,64.57h34.82c0.11-0.27,0.2-0.55,0.27-0.83c0.51-1.85,0.53-4.1,0.53-5.11
	c0-9.84-7.97-17.81-17.81-17.81s-17.81,7.97-17.81,17.81V64.57z M208.12,112.07v89.06c0,9.84-7.97,17.81-17.81,17.81l0,0h-53.44
	V112.07H208.12z M59.69,218.94c-9.84,0-17.81-7.97-17.81-17.81l0,0v-89.06h71.25v106.87H59.69z"/>
</svg>
