<?xml version="1.0" encoding="UTF-8"?>
<svg id="Layer_2" xmlns="http://www.w3.org/2000/svg" viewBox="0 0 58.86 165.7">
    <defs>
        <style>.cls-1{fill:#ace1f9;}.cls-2{fill:#ead9b0;}.cls-3{fill:#8bc3ea;}.cls-4{fill:#f2e8cf;}</style>
    </defs>
    <g id="Layer_1-2">
        <g id="Letter_bottle">
            <path id="Path_146" class="cls-1" d="m39.04,27.67c-.59-6-.48-21.32-.48-21.32l-20.2.3s.13,16.62.32,21.34C18.86,32.71-.1,43.98,0,50.94c.1,6.96,1.53,103.39,1.53,103.39,0,0,3.92,11.73,28.84,11.36s28.49-12.21,28.49-12.21c0,0-1.39-93.88-1.53-103.39-.14-9.51-17.7-16.42-18.29-22.42"/><path id="Path_147" class="cls-3" d="m38.53,10.98l-20.89.31c-3.03.07-5.55-2.33-5.62-5.36S14.35.38,17.38.31h.09L38.36,0c3.03-.08,5.56,2.31,5.64,5.34s-2.31,5.56-5.34,5.64h-.13"/><path class="cls-4" d="m40.65,47.67l-.04-.02c.02-.08.03-.15.04-.23-.07-1.92-5.97-3.27-13.18-3.02s-13,2.02-12.94,3.94c.01.08.03.16.06.23-.02.01,5.43,44.01,5.43,44.01.68,5.48.87,11.01.58,16.52l-2.38,44.27.06.02c-.03.1-.05.2-.05.3.07,1.92,5.97,3.27,13.18,3.02,7.21-.25,13-2.02,12.93-3.94,0-.1-.03-.2-.07-.29l.05-.02-5.47-43.99c-.68-5.48-.88-11.01-.58-16.52l2.38-44.28Z"/><path class="cls-2" d="m45.32,152.56c0-.08,0-.15,0-.23l-5.47-43.99c-.67-5.41-.87-10.9-.57-16.35l2.38-44.26c0-.07,0-.14,0-.21,0-.04,0-.08,0-.13-.12-3.54-9.35-4.16-14.21-3.99-3.57.12-6.93.62-9.45,1.38-3,.91-4.5,2.12-4.44,3.65.01.14.05.29.1.43.03.39.1.94.19,1.72l5.2,42.12c.67,5.41.86,10.91.57,16.35l-2.38,44.27c0,.07,0,.15.02.22,0,.06-.01.12-.01.18.11,3.2,7.66,4.01,12.71,4.01.54,0,1.04,0,1.51-.03,3.57-.12,6.93-.62,9.45-1.39,3-.91,4.5-2.12,4.44-3.62-.03-.04-.04-.09-.04-.13Zm-13.96,3.14c-7.97.28-11.97-1.39-12.15-2,.06-.18.05-.37.01-.55l2.37-44c.3-5.56.1-11.18-.58-16.7-1.48-12-4.04-32.67-5.02-40.68,1,.91,2.38,1.95,4.25,2.96.87.57,2.59,1.06,4.92,1.06,1.9,0,4.2-.33,6.77-1.21,2.47-.84,4.97-1.94,4.73-3.69-.18-1.34-2.47-3.06-12.33-3.66-.53-.02-1.03.39-1.06.94s.39,1.03.94,1.06c4.75.29,9.38,1.15,10.36,1.9-.26.24-1.04.79-3.29,1.56-5.27,1.8-9,1.02-9.97.35-.03-.02-.06-.04-.09-.05-3.8-2.03-5.31-4.19-5.66-4.74.31-.73,4.18-2.58,11.95-2.85,7.96-.29,11.97,1.39,12.14,1.98-.05.17-.05.35,0,.52l-2.37,43.98c-.3,5.56-.1,11.18.58,16.7l5.43,43.66c-.04.18-.03.37.04.55-.11.69-3.99,2.63-11.96,2.91Z"/>
        </g>
    </g>
</svg>