<?xml version="1.0" encoding="utf-8"?>
<!-- Generator: Adobe Illustrator 27.2.0, SVG Export Plug-In . SVG Version: 6.00 Build 0)  -->
<svg version="1.1" id="Icons" xmlns="http://www.w3.org/2000/svg" xmlns:xlink="http://www.w3.org/1999/xlink" x="0px" y="0px"
	 viewBox="0 0 250 250" style="enable-background:new 0 0 250 250;" xml:space="preserve">
<style type="text/css">
	.st0{fill:#ACE1F9;}
	.st1{fill:#8BC3EA;}
	.st2{fill:#E8C274;}
	.st3{fill:#C7A864;}
	.st4{fill:#2B2B2B;}
	.st5{fill:#F2E8CF;}
	.st6{fill:#EAD9B0;}
</style>
<g id="Letter_bottle">
	<path id="Path_146_00000022534812492264944350000004403857377390359961_" class="st0" d="M134.61,81.97
		c-0.59-6-0.48-21.32-0.48-21.32l-20.2,0.3c0,0,0.13,16.62,0.32,21.34c0.18,4.72-18.78,15.99-18.68,22.95
		c0.1,6.96,1.53,103.39,1.53,103.39s3.92,11.73,28.84,11.36s28.49-12.21,28.49-12.21s-1.39-93.88-1.53-103.39
		C152.76,94.88,135.2,87.97,134.61,81.97"/>
	<path id="Path_147_00000067206145481731557250000004373881475742232476_" class="st1" d="M134.1,65.28l-20.89,0.31
		c-3.03,0.07-5.55-2.33-5.62-5.36c-0.07-3.03,2.33-5.55,5.36-5.62c0.03,0,0.06,0,0.09,0l20.89-0.31c3.03-0.08,5.56,2.31,5.64,5.34
		c0.08,3.03-2.31,5.56-5.34,5.64C134.19,65.28,134.15,65.28,134.1,65.28"/>
	<g>
		<g>
			<path class="st2" d="M148.56,203.5l-41.16,7.26c-1.09,0.19-2.13-0.53-2.32-1.62l-7.26-41.16c-0.19-1.09,0.53-2.13,1.62-2.32
				l41.16-7.26c1.09-0.19,2.13,0.53,2.32,1.62l7.26,41.16C150.37,202.27,149.65,203.31,148.56,203.5z"/>
			<path class="st3" d="M149.21,204.57l-42.05,7.42c-1.47,0.26-2.88-0.73-3.14-2.2l-7.42-42.05c-0.26-1.47,0.73-2.88,2.2-3.14
				l42.05-7.42c1.47-0.26,2.88,0.73,3.14,2.2l7.42,42.05C151.66,202.9,150.68,204.31,149.21,204.57z M99.2,166.88
				c-0.21,0.04-0.35,0.24-0.31,0.45l7.42,42.05c0.04,0.21,0.24,0.35,0.45,0.31l42.05-7.42c0.21-0.04,0.35-0.24,0.31-0.45
				l-7.42-42.05c-0.04-0.21-0.24-0.35-0.45-0.31L99.2,166.88z"/>
		</g>
		<g>
			<path class="st4" d="M143.86,200.21l-33.17,5.85c-1.09,0.19-2.13-0.53-2.32-1.62l-5.85-33.17c-0.19-1.09,0.53-2.13,1.62-2.32
				l33.17-5.85c1.09-0.19,2.13,0.53,2.32,1.62l5.85,33.17C145.67,198.98,144.95,200.02,143.86,200.21z"/>
		</g>
	</g>
	<path class="st5" d="M136.22,101.97l-0.04-0.02c0.02-0.08,0.03-0.15,0.04-0.23c-0.07-1.92-5.97-3.27-13.18-3.02
		c-7.21,0.25-13,2.02-12.94,3.94c0.01,0.08,0.03,0.16,0.06,0.23c-0.02,0.01,5.43,44.01,5.43,44.01c0.68,5.48,0.87,11.01,0.58,16.52
		l-2.38,44.27l0.06,0.02c-0.03,0.1-0.05,0.2-0.05,0.3c0.07,1.92,5.97,3.27,13.18,3.02c7.21-0.25,13-2.02,12.93-3.94
		c-0.01-0.1-0.03-0.2-0.07-0.29l0.05-0.02l-5.47-43.99c-0.68-5.48-0.88-11.01-0.58-16.52L136.22,101.97z"/>
	<path class="st6" d="M140.89,206.86c0.01-0.08,0.01-0.15,0-0.23l-5.47-43.99c-0.67-5.41-0.87-10.9-0.57-16.35l2.38-44.26
		c0-0.07,0-0.14-0.01-0.21c0-0.04,0-0.08,0.01-0.13c-0.12-3.54-9.35-4.16-14.21-3.99c-3.57,0.12-6.93,0.62-9.45,1.38
		c-3,0.91-4.5,2.12-4.44,3.65c0.01,0.14,0.05,0.29,0.1,0.43c0.03,0.39,0.1,0.94,0.19,1.72l5.2,42.12
		c0.67,5.41,0.86,10.91,0.57,16.35l-2.38,44.27c0,0.07,0,0.15,0.02,0.22c0,0.06-0.01,0.12-0.01,0.18c0.11,3.2,7.66,4.01,12.71,4.01
		c0.54,0,1.04-0.01,1.51-0.03c3.57-0.12,6.93-0.62,9.45-1.39c3-0.91,4.5-2.12,4.44-3.62C140.9,206.95,140.89,206.9,140.89,206.86z
		 M126.93,210c-7.97,0.28-11.97-1.39-12.15-2c0.06-0.18,0.05-0.37,0.01-0.55l2.37-44c0.3-5.56,0.1-11.18-0.58-16.7
		c-1.48-12-4.04-32.67-5.02-40.68c1,0.91,2.38,1.95,4.25,2.96c0.87,0.57,2.59,1.06,4.92,1.06c1.9,0,4.2-0.33,6.77-1.21
		c2.47-0.84,4.97-1.94,4.73-3.69c-0.18-1.34-2.47-3.06-12.33-3.66c-0.53-0.02-1.03,0.39-1.06,0.94c-0.03,0.55,0.39,1.03,0.94,1.06
		c4.75,0.29,9.38,1.15,10.36,1.9c-0.26,0.24-1.04,0.79-3.29,1.56c-5.27,1.8-9,1.02-9.97,0.35c-0.03-0.02-0.06-0.04-0.09-0.05
		c-3.8-2.03-5.31-4.19-5.66-4.74c0.31-0.73,4.18-2.58,11.95-2.85c7.96-0.29,11.97,1.39,12.14,1.98c-0.05,0.17-0.05,0.35-0.01,0.52
		l-2.37,43.98c-0.3,5.56-0.1,11.18,0.58,16.7l5.43,43.66c-0.04,0.18-0.03,0.37,0.04,0.55C138.78,207.78,134.9,209.72,126.93,210z"/>
</g>
</svg>
